<svg xmlns="http://www.w3.org/2000/svg" width="45" height="45" viewBox="0 0 45 45" fill="none">
  <path d="M13.5938 13.125C13.5938 12.752 13.7419 12.3944 14.0056 12.1306C14.2694 11.8669 14.627 11.7188 15 11.7188H30C30.373 11.7188 30.7306 11.8669 30.9944 12.1306C31.2581 12.3944 31.4062 12.752 31.4062 13.125C31.4062 13.498 31.2581 13.8556 30.9944 14.1194C30.7306 14.3831 30.373 14.5312 30 14.5312H15C14.627 14.5312 14.2694 14.3831 14.0056 14.1194C13.7419 13.8556 13.5938 13.498 13.5938 13.125ZM15 18.2812C14.627 18.2812 14.2694 18.4294 14.0056 18.6931C13.7419 18.9569 13.5938 19.3145 13.5938 19.6875C13.5938 20.0605 13.7419 20.4181 14.0056 20.6819C14.2694 20.9456 14.627 21.0938 15 21.0938H24.375C24.748 21.0938 25.1056 20.9456 25.3694 20.6819C25.6331 20.4181 25.7812 20.0605 25.7812 19.6875C25.7812 19.3145 25.6331 18.9569 25.3694 18.6931C25.1056 18.4294 24.748 18.2812 24.375 18.2812H15Z" fill="#FCFCFC"/>
  <path fill-rule="evenodd" clip-rule="evenodd" d="M18.6469 2.34375C16.0837 2.34375 14.0156 2.34375 12.39 2.56312C10.7025 2.78812 9.28125 3.27563 8.1525 4.4025C7.02375 5.53125 6.54 6.9525 6.31313 8.64C6.09375 10.2656 6.09375 12.3338 6.09375 14.8969V30.1031C6.09375 32.6663 6.09375 34.7344 6.31313 36.36C6.53813 38.0475 7.02563 39.4688 8.1525 40.5975C9.28125 41.7262 10.7025 42.21 12.39 42.4388C14.0156 42.6562 16.0837 42.6562 18.6469 42.6562H26.3531C28.9163 42.6562 30.9844 42.6562 32.61 42.4388C34.2975 42.21 35.7188 41.7262 36.8475 40.5975C37.9763 39.4688 38.46 38.0475 38.6888 36.36C38.9062 34.7344 38.9062 32.6663 38.9062 30.1031V14.8969C38.9062 12.3338 38.9062 10.2656 38.6888 8.64C38.46 6.9525 37.9763 5.53125 36.8475 4.4025C35.7188 3.27375 34.2975 2.79 32.61 2.56312C30.9844 2.34375 28.9163 2.34375 26.3531 2.34375H18.6469ZM10.1437 6.39187C10.6631 5.8725 11.3906 5.535 12.7687 5.34937C14.1825 5.16 16.0613 5.15625 18.7519 5.15625H26.2519C28.9425 5.15625 30.8194 5.16 32.2369 5.34937C33.6131 5.535 34.3406 5.87437 34.86 6.39187C35.3794 6.91125 35.7169 7.63875 35.9025 9.01688C36.0919 10.4306 36.0956 12.3094 36.0956 15V28.5938H14.5913C13.0575 28.5938 12.0113 28.5938 11.1131 28.8337C10.324 29.0471 9.57749 29.3947 8.90625 29.8612V15C8.90625 12.3094 8.91 10.4306 9.09938 9.015C9.285 7.63875 9.62625 6.91125 10.1437 6.39187ZM8.95687 34.2169C8.985 34.8806 9.03 35.4637 9.09938 35.985C9.285 37.3612 9.62437 38.0887 10.1419 38.6081C10.6612 39.1275 11.3888 39.465 12.7669 39.6506C14.1806 39.84 16.0594 39.8438 18.75 39.8438H26.25C28.9406 39.8438 30.8175 39.84 32.235 39.6506C33.6112 39.465 34.3387 39.1256 34.8581 38.6081C35.3775 38.0887 35.715 37.3613 35.9006 35.9831C36.0562 34.83 36.0863 33.3675 36.0919 31.4062H14.8087C12.975 31.4062 12.3338 31.4175 11.8406 31.5506C11.1798 31.7279 10.5719 32.0632 10.0696 32.5277C9.56718 32.9922 9.18531 33.5719 8.95687 34.2169Z" fill="#FCFCFC"/>
</svg>