<svg width="320" height="207" viewBox="0 0 320 207" fill="none" xmlns="http://www.w3.org/2000/svg">
<g clip-path="url(#clip0_495_2)">
<path d="M122.681 47H18C8.05888 47 0 55.0589 0 65V189C0 198.941 8.05887 207 18 207H302C311.941 207 320 198.941 320 189V65C320 55.0589 311.941 47 302 47H197.748" stroke="black"/>
<path d="M177.267 25.9042L160 0.595703L142.733 25.9042C140.4 29.3779 139 33.8441 139 38.3103C139 50.2202 148.333 60.1451 160 60.1451C171.667 60.1451 181 50.2202 181 38.3103C181 33.8441 179.6 29.3779 177.267 25.9042ZM171.667 40.2953H162.333V50.2202H157.667V40.2953H148.333V35.3329H157.667V25.408H162.333V35.3329H171.667V40.2953Z" fill="#AB1419"/>
</g>
<defs>
<clipPath id="clip0_495_2">
<rect width="320" height="206.404" fill="white" transform="translate(0 0.595703)"/>
</clipPath>
</defs>
</svg>
