<svg width="322" height="204" viewBox="0 0 322 204" fill="none" xmlns="http://www.w3.org/2000/svg">
<path d="M123.681 42.5178H19C9.05888 42.5178 1 50.5767 1 60.5178V184.518C1 194.459 9.05887 202.518 19 202.518H303C312.941 202.518 321 194.459 321 184.518V60.5178C321 50.5767 312.941 42.5178 303 42.5178H198.748" stroke="black" stroke-width="2"/>
<path d="M178.267 25.3085L161 0L143.733 25.3085C141.4 28.7822 140 33.2484 140 37.7146C140 49.6245 149.333 59.5494 161 59.5494C172.667 59.5494 182 49.6245 182 37.7146C182 33.2484 180.6 28.7822 178.267 25.3085ZM172.667 39.6996H163.333V49.6245H158.667V39.6996H149.333V34.7372H158.667V24.8123H163.333V34.7372H172.667V39.6996Z" fill="#AB1419"/>
</svg>
