<svg xmlns="http://www.w3.org/2000/svg" width="16" height="16" viewBox="0 0 16 16" fill="none">
  <g clip-path="url(#clip0_253_23)">
    <path d="M13.6328 13.6329H11.2621V9.92023C11.2621 9.03492 11.2463 7.89523 10.0291 7.89523C8.79431 7.89523 8.60538 8.85985 8.60538 9.85579V13.6327H6.23475V5.99792H8.51056V7.04129H8.54244C8.77021 6.65187 9.09933 6.33151 9.49476 6.11433C9.89018 5.89715 10.3371 5.79127 10.7879 5.80798C13.1908 5.80798 13.6338 7.38848 13.6338 9.4446L13.6328 13.6329ZM3.55975 4.95435C2.79994 4.95448 2.18387 4.3386 2.18375 3.57879C2.18362 2.81898 2.79944 2.20292 3.55925 2.20279C4.31906 2.2026 4.93512 2.81848 4.93525 3.57829C4.93532 3.94317 4.79044 4.29313 4.53248 4.55119C4.27453 4.80925 3.92463 4.95427 3.55975 4.95435ZM4.74512 13.633H2.37194V5.99792H4.74506L4.74512 13.633ZM14.8146 0.00110346H1.18069C0.536312 -0.00614654 0.007875 0.510041 0 1.15442V14.8452C0.007625 15.4899 0.536 16.0066 1.18062 15.9999H14.8146C15.4606 16.0079 15.9911 15.4912 16 14.8452V1.15335C15.9908 0.507728 15.4603 -0.00839654 14.8146 4.09581e-05" fill="#0A66C2"/>
  </g>
  <defs>
    <clipPath id="clip0_253_23">
      <rect width="16" height="16" fill="white"/>
    </clipPath>
  </defs>
</svg>