<svg xmlns="http://www.w3.org/2000/svg" width="19" height="16" viewBox="0 0 19 16" fill="none">
  <g clip-path="url(#clip0_253_21)">
    <path d="M19 1.88889C18.2885 2.20413 17.5339 2.41102 16.7611 2.50268C17.566 2.02026 18.184 1.25633 18.4751 0.346109C17.7099 0.800146 16.8727 1.12006 15.9998 1.29203C15.2887 0.534477 14.2757 0.0610352 13.1545 0.0610352C11.0017 0.0610352 9.25627 1.80636 9.25627 3.959C9.25627 4.26456 9.29078 4.56203 9.3572 4.8474C6.11755 4.68479 3.24529 3.13295 1.32265 0.774574C0.987184 1.35029 0.794957 2.01996 0.794957 2.73425C0.794957 4.08666 1.48319 5.27973 2.52908 5.97879C1.91005 5.95944 1.30464 5.79225 0.763414 5.49118C0.763216 5.5075 0.763142 5.52386 0.763191 5.54023C0.763191 7.42888 2.10685 9.00439 3.89003 9.3625C3.31601 9.51859 2.71391 9.54144 2.12971 9.4293C2.62571 10.9779 4.06533 12.1049 5.77103 12.1364C4.43695 13.1819 2.75611 13.8051 0.929887 13.8051C0.615199 13.8051 0.304965 13.7866 0 13.7506C1.72507 14.8566 3.77402 15.5019 5.97535 15.5019C13.1454 15.5019 17.0662 9.56215 17.0662 4.41107C17.0662 4.242 17.0624 4.07389 17.0549 3.90675C17.818 3.35501 18.4766 2.67171 19 1.88889Z" fill="#55ACEE"/>
  </g>
  <defs>
    <clipPath id="clip0_253_21">
      <rect width="19" height="15.5117" fill="white"/>
    </clipPath>
  </defs>
</svg>